<svg xmlns="http://www.w3.org/2000/svg" viewBox="0 0 750 500"><g id="freepik--Plant--inject-94"><path d="M658.8,354.16c.52-2.52.16-5.14.73-9.9s2.84-6.65,4.09-10,3-11.24,3-11.24H665.2s-4.48,14.64-5.77,17.95-1.25,6.32-1.47,9.34a67.94,67.94,0,0,1-1.43,8s-1.65-17-2.33-22.93-.38-17.55-.38-17.55l-1.57-.67V326s.65,8.38,1.17,13.19A295.46,295.46,0,0,1,654.87,371a73.33,73.33,0,0,0,2.78,21.3c.05.37.47,11.68.24,17.3s-.36,27.79-.12,28.78l5,1.2s-2.9-19.57-2.37-33.72-.65-13.37-2.5-20.13-1.28-25.11-1.28-25.11A46.6,46.6,0,0,0,658.8,354.16Z" style="fill:#263238"></path><path d="M664.55,324.83A25.86,25.86,0,0,0,676.24,317c4.54-5.76,7.5-10.47,12.21-12.74-9.07-4-14.65,4-19.19,6.46s-9.07,4.19-8.37,8.9S664.55,324.83,664.55,324.83Z" style="fill:#159DA2"></path><path d="M693.74,253.34a44.48,44.48,0,0,1-1.62,5.11,56.08,56.08,0,0,1-2.81,6.24,38.43,38.43,0,0,1-3.71,5.87,15,15,0,0,1-4.46,4.08,7.48,7.48,0,0,1-1.06.47A68.58,68.58,0,0,0,668.56,280a20.81,20.81,0,0,1-2.46-12.65,18.63,18.63,0,0,1,1.22-4.38,26.13,26.13,0,0,1,2-3.8l1-1.67c.31-.52.62-1,1-1.56a35.78,35.78,0,0,1,6.47-7.76c.57-.51,1.17-1,1.81-1.5a11.52,11.52,0,0,1,2.49-1.43,27.19,27.19,0,0,1,10.25-1.71s1.05,1.22,1.92,5.41c0,.09,0,.18,0,.28A13,13,0,0,1,693.74,253.34Z" style="fill:#159DA2"></path><path d="M674.5,294.47s12.56-8.55,28.43-7c-8.55-8.38-15.52-8-21.46-5.06S671.88,287.67,674.5,294.47Z" style="fill:#159DA2"></path><path d="M660,280.87s-6.11-7.86-14.48-9.95a74.93,74.93,0,0,0-18-1.74s4.71-6.81,15-6.28S656,266,657.75,269.53,661.41,276.85,660,280.87Z" style="fill:#159DA2"></path><path d="M658.8,306.34c0,1.07-.07,2.09-.14,3.06-.37,5.17-1.56,8.74-6,9.32,0,0-6.28-1.57-8.73-7.67s-1-7.15-4.71-11.17-5.58-14-5.58-14h0a20.82,20.82,0,0,1,12.87,1.23l.29.14C653.21,290.39,659,299.63,658.8,306.34Z" style="fill:#159DA2"></path><path d="M642.22,324.65s-1.05,1.4-7.5,1.92-8,5.76-15.36,7-8.37,1.05-11.51-.87c1.42-4.4,5-5.73,8.2-8.26a15.15,15.15,0,0,0,2.83-2.83c.11-.13.21-.28.31-.42a11.16,11.16,0,0,1,6-3.95h0a20.54,20.54,0,0,1,5.75-.86,16.08,16.08,0,0,1,6.56,1.14C642.05,319.6,642.05,322.21,642.22,324.65Z" style="fill:#159DA2"></path><path d="M676.42,447.58a75.58,75.58,0,0,1-6,24.42,5.51,5.51,0,0,1-5.06,3.32h-10a5.51,5.51,0,0,1-5.06-3.32,75.33,75.33,0,0,1-6-24.42q-.4-4.95-.32-10.16h32.66A99.87,99.87,0,0,1,676.42,447.58Z" style="fill:#e0e0e0"></path><path d="M676.81,447.58a77.34,77.34,0,0,1-6.11,25,5.65,5.65,0,0,1-5.18,3.39H655.28a5.67,5.67,0,0,1-5.18-3.39,77.59,77.59,0,0,1-6.1-25Z" style="fill:#455a64"></path><path d="M679.45,398a18.5,18.5,0,0,0-13.86-5.85l-.14.13c-1.05,5.27,1.36,10.87,5.42,14.39s9.54,5.11,14.91,5.21A24.6,24.6,0,0,0,679.45,398Z" style="fill:#159DA2"></path><path d="M648.32,403.45a12.52,12.52,0,0,0-6.3.77,34.62,34.62,0,0,0-12.86,7.85c4.32,1.49,8.85,2.87,13.39,2.36s9.13-3.37,10.26-7.79C652.4,404.54,650.42,403.86,648.32,403.45Z" style="fill:#159DA2"></path><path d="M617.83,376.24a9.34,9.34,0,0,0,4.46,3.52c1.77.78,3.64,1.33,5.32,2.27,3,1.71,5.19,4.57,8,6.59a17.14,17.14,0,0,0,14,2.64,16.37,16.37,0,0,0-4.21-13.53,19.08,19.08,0,0,0-13-5.92,22.78,22.78,0,0,0-13.82,4.1" style="fill:#159DA2"></path><path d="M662.38,381.78c-1.75-4.31,0-10.07,3.38-13.26,2.22-2.08,5.14-3.21,8-4.25q3.57-1.31,7.19-2.54a2.43,2.43,0,0,1,1.75-.13c.81.38.92,1.48.87,2.38a23,23,0,0,1-2.93,10.42,15.64,15.64,0,0,1-8.16,6.94c-3.44,1.18-7.1,2.51-10.1.44" style="fill:#159DA2"></path><path d="M648.71,365.64a7.19,7.19,0,0,0-3.56-5.16,14.21,14.21,0,0,0-6.2-1.75,28.08,28.08,0,0,0-14.88,2.91,50,50,0,0,0,13.41,6.46,15.2,15.2,0,0,0,6.1.87,6.41,6.41,0,0,0,5.06-3.15" style="fill:#159DA2"></path><path d="M648.7,342.83a31,31,0,0,0-12.15-3.67c.56,4.47,1.51,9.2,4.68,12.41a11.39,11.39,0,0,0,7.17,3.31,12.62,12.62,0,0,0,8.08-2.11v-.22A16.35,16.35,0,0,0,648.7,342.83Z" style="fill:#159DA2"></path><path d="M671.49,333.69c-2.3,1.52-2.49,5-1.15,7.44s3.76,4,6.09,5.47a68.6,68.6,0,0,0,9.41,5.31c4.24,1.83,8.91,2.83,12.67,5.51a29.78,29.78,0,0,0-2.3-14.85,20,20,0,0,0-10.57-10.39,15.1,15.1,0,0,0-14.43,1.72" style="fill:#159DA2"></path><path d="M671.68,334.68c0,.08-1.12.57-2.82,1.68a24.22,24.22,0,0,0-2.8,2.16,25.32,25.32,0,0,0-2.93,3.18,25.07,25.07,0,0,0-2.31,3.66,24,24,0,0,0-1.36,3.27c-.63,1.92-.8,3.17-.88,3.15a3.64,3.64,0,0,1,.07-.88,9.18,9.18,0,0,1,.19-1,13,13,0,0,1,.33-1.34,21.3,21.3,0,0,1,1.3-3.36,23,23,0,0,1,2.32-3.74,24.12,24.12,0,0,1,3-3.22,21.22,21.22,0,0,1,2.9-2.12c.43-.28.85-.48,1.21-.67a6.31,6.31,0,0,1,.94-.44A3.84,3.84,0,0,1,671.68,334.68Z" style="fill:#263238"></path><path d="M693.42,348.65a5.55,5.55,0,0,1-.71-.89c-.45-.59-1.09-1.43-1.94-2.43a42.94,42.94,0,0,0-7.49-6.94,26.56,26.56,0,0,0-4.82-2.87,11.2,11.2,0,0,0-4.4-1,8.49,8.49,0,0,0-3,.51c-.68.26-1,.48-1,.45s.07-.08.23-.19a4.65,4.65,0,0,1,.75-.41,7.71,7.71,0,0,1,3.07-.66,11.15,11.15,0,0,1,4.57,1,25.46,25.46,0,0,1,4.91,2.89,38.56,38.56,0,0,1,7.47,7.08c.83,1,1.44,1.91,1.84,2.53A6.24,6.24,0,0,1,693.42,348.65Z" style="fill:#263238"></path><path d="M680.74,306.45c0,.06-1.17.79-3,2.15a42.28,42.28,0,0,0-11.65,13.26c-1.11,2-1.68,3.29-1.74,3.26a4.09,4.09,0,0,1,.33-.94,25.68,25.68,0,0,1,1.15-2.46,37.57,37.57,0,0,1,5.07-7.39,38.54,38.54,0,0,1,6.66-6,25.88,25.88,0,0,1,2.3-1.45A3.8,3.8,0,0,1,680.74,306.45Z" style="fill:#263238"></path><path d="M642,290.17a1.42,1.42,0,0,1,.3.16c.18.12.46.28.79.53a22.85,22.85,0,0,1,2.7,2.23,25.73,25.73,0,0,1,7.78,21,23.3,23.3,0,0,1-.59,3.45c-.09.4-.2.71-.26.91s-.11.32-.12.31a8.71,8.71,0,0,1,.22-1.26,29.12,29.12,0,0,0,.45-3.44,26.57,26.57,0,0,0-7.7-20.78A28.15,28.15,0,0,0,643,291,9.55,9.55,0,0,1,642,290.17Z" style="fill:#263238"></path><path d="M622.34,322.11a3.06,3.06,0,0,1,.6-.67,10.45,10.45,0,0,1,2-1.48,12,12,0,0,1,15,2.2,11.3,11.3,0,0,1,1.47,2,3.4,3.4,0,0,1,.38.82,24.21,24.21,0,0,0-2.07-2.59,12.13,12.13,0,0,0-14.61-2.14A22.91,22.91,0,0,0,622.34,322.11Z" style="fill:#263238"></path><path d="M656.15,352.18a66.63,66.63,0,0,1-6.64-3.13,60.46,60.46,0,0,1-6.44-3.51,66.63,66.63,0,0,1,6.64,3.13A60.46,60.46,0,0,1,656.15,352.18Z" style="fill:#263238"></path><path d="M631,360.68a2.66,2.66,0,0,1,.74-.07,20.13,20.13,0,0,1,2,0,30,30,0,0,1,6.56,1.1,30.36,30.36,0,0,1,6.16,2.5c.75.41,1.34.77,1.73,1a2.43,2.43,0,0,1,.59.45c0,.06-.94-.48-2.46-1.22a36.19,36.19,0,0,0-12.61-3.57C632,360.77,631,360.75,631,360.68Z" style="fill:#263238"></path><path d="M680.78,363.46a4.08,4.08,0,0,1-.85.59c-.57.35-1.38.87-2.36,1.54a52.5,52.5,0,0,0-13.2,12.89c-.69,1-1.23,1.76-1.6,2.32a5.65,5.65,0,0,1-.6.84,4.27,4.27,0,0,1,.46-.93c.32-.59.83-1.41,1.49-2.4a46.66,46.66,0,0,1,6-7.17,45.73,45.73,0,0,1,7.31-5.8c1-.64,1.84-1.13,2.44-1.43A6.15,6.15,0,0,1,680.78,363.46Z" style="fill:#263238"></path><path d="M623.8,375.94a9.43,9.43,0,0,1,1.25-.05c.81,0,2,0,3.42.1a32.82,32.82,0,0,1,5,.65,18.75,18.75,0,0,1,5.83,2.25,20.77,20.77,0,0,1,4.73,4.08,36.27,36.27,0,0,1,3.06,4.07c.79,1.21,1.39,2.21,1.8,2.91a7.9,7.9,0,0,1,.59,1.11,6,6,0,0,1-.73-1c-.45-.67-1.09-1.65-1.91-2.83a42.72,42.72,0,0,0-3.1-4,21.06,21.06,0,0,0-4.66-4,18.91,18.91,0,0,0-5.69-2.24,37.13,37.13,0,0,0-5-.73c-1.43-.12-2.6-.18-3.4-.23A7,7,0,0,1,623.8,375.94Z" style="fill:#263238"></path><path d="M652.85,406.37a22.92,22.92,0,0,1-2.48.18,34.62,34.62,0,0,0-5.9.92,35.2,35.2,0,0,0-5.66,1.91,23,23,0,0,1-2.29,1,2.42,2.42,0,0,1,.55-.39c.37-.23.92-.53,1.61-.88a29.37,29.37,0,0,1,5.69-2.05,28.46,28.46,0,0,1,6-.81c.78,0,1.4,0,1.84,0A1.91,1.91,0,0,1,652.85,406.37Z" style="fill:#263238"></path><path d="M682.19,409.64c-.09.08-4-3.66-8.7-8.36s-8.48-8.58-8.4-8.67,4,3.66,8.7,8.36S682.27,409.56,682.19,409.64Z" style="fill:#263238"></path><path d="M666.22,392.65a19.06,19.06,0,0,0-3.45.49,18.27,18.27,0,0,0-3.14,1.5,6.68,6.68,0,0,1,6.59-2Z" style="fill:#263238"></path><path d="M660.13,402.35c-.06,0-.46-.76-1.27-1.93a26.11,26.11,0,0,0-3.69-4.16c-1.6-1.48-3.16-2.69-4.29-3.57a14.79,14.79,0,0,1-1.79-1.49,11.07,11.07,0,0,1,2,1.24,43,43,0,0,1,4.41,3.51,21.82,21.82,0,0,1,3.64,4.3,12.68,12.68,0,0,1,.81,1.51C660.08,402.13,660.16,402.34,660.13,402.35Z" style="fill:#263238"></path><path d="M658.51,406.15a7.52,7.52,0,0,1-6-.24c0-.13,1.34.26,3,.32S658.48,406,658.51,406.15Z" style="fill:#263238"></path><path d="M664.67,378.35c.06,0-.49.85-1.25,2.23a31.36,31.36,0,0,0-3.76,11.61c-.19,1.57-.22,2.55-.29,2.55a2.16,2.16,0,0,1-.06-.69,16.53,16.53,0,0,1,.05-1.89,26.3,26.3,0,0,1,1.2-6.09,25.7,25.7,0,0,1,2.6-5.64,16.7,16.7,0,0,1,1.06-1.56C664.49,378.52,664.65,378.33,664.67,378.35Z" style="fill:#263238"></path><path d="M655.94,373.67c-.06,0-.25-.61-.75-1.52a12.48,12.48,0,0,0-2.57-3.15,31.85,31.85,0,0,0-3.28-2.47,7.63,7.63,0,0,1-1.39-1,6.64,6.64,0,0,1,1.55.77,20.09,20.09,0,0,1,3.4,2.41,10.33,10.33,0,0,1,2.55,3.32A3.71,3.71,0,0,1,655.94,373.67Z" style="fill:#263238"></path><path d="M654.61,337.76c-.06,0-.58-.95-1.56-2.46a38.6,38.6,0,0,0-4.32-5.51,37.88,37.88,0,0,0-5.28-4.59c-1.46-1.05-2.42-1.62-2.38-1.68a2.63,2.63,0,0,1,.71.33,20.67,20.67,0,0,1,1.84,1.1,31.59,31.59,0,0,1,9.69,10.19c.46.78.8,1.43,1,1.89A2.78,2.78,0,0,1,654.61,337.76Z" style="fill:#263238"></path><path d="M685.47,289.29a2.36,2.36,0,0,1-.49.24l-1.44.62c-1.24.53-3,1.28-5.21,2.36a31.78,31.78,0,0,0-7,4.65,35.7,35.7,0,0,0-6.46,8,103,103,0,0,0-4.8,9.23c-1.36,2.88-2.6,5.48-3.64,7.69s-1.88,3.9-2.49,5.17l-.7,1.39a2,2,0,0,1-.27.48,3.37,3.37,0,0,1,.2-.51l.62-1.43c.58-1.28,1.38-3.06,2.37-5.23l3.56-7.73a93.89,93.89,0,0,1,4.79-9.28,35,35,0,0,1,6.56-8.12,31.08,31.08,0,0,1,7.16-4.63c2.19-1.05,4-1.76,5.29-2.25l1.47-.54A2.55,2.55,0,0,1,685.47,289.29Z" style="fill:#263238"></path><path d="M656.59,273.35a8.28,8.28,0,0,1,.64,1.08c.39.71.91,1.76,1.51,3.07a71.61,71.61,0,0,1,6,21.71c.15,1.44.24,2.61.27,3.42a6.32,6.32,0,0,1,0,1.25,7.9,7.9,0,0,1-.17-1.24c-.08-.8-.22-2-.41-3.39a82.9,82.9,0,0,0-6-21.63c-.57-1.32-1.05-2.38-1.39-3.11A7.13,7.13,0,0,1,656.59,273.35Z" style="fill:#263238"></path><path d="M684.07,251.43a2.31,2.31,0,0,1-.24.46l-.75,1.25c-.66,1.09-1.64,2.64-2.79,4.6-2.32,3.9-5.43,9.36-8.39,15.62-1.46,3.14-2.74,6.18-3.78,9s-1.82,5.4-2.4,7.59-.93,4-1.16,5.24c-.1.59-.18,1.07-.25,1.44a1.52,1.52,0,0,1-.11.5,3.27,3.27,0,0,1,0-.51c0-.33.08-.82.17-1.45a52.3,52.3,0,0,1,1-5.29,79.58,79.58,0,0,1,2.32-7.66c1-2.83,2.3-5.88,3.77-9A158,158,0,0,1,680,257.59c1.19-1.95,2.21-3.48,2.91-4.54.33-.49.61-.89.82-1.21A3.56,3.56,0,0,1,684.07,251.43Z" style="fill:#263238"></path></g><g id="freepik--Chair--inject-94"><rect x="74.53" y="373.29" width="104.12" height="10.79" transform="translate(253.18 757.37) rotate(180)" style="fill:#455a64"></rect><polygon points="140.33 261.26 74.37 262.07 74.53 374.01 148.15 374.65 140.33 261.26" style="fill:#455a64"></polygon><polygon points="65.5 475.91 70.66 475.83 82.06 375.72 76.98 375.14 65.5 475.91" style="fill:#455a64"></polygon><polygon points="95.75 475.91 100.91 475.83 112.31 375.72 107.22 375.14 95.75 475.91" style="fill:#455a64"></polygon><polygon points="186.93 476.1 181.77 476.02 170.37 376.83 175.45 376.25 186.93 476.1" style="fill:#455a64"></polygon><polygon points="153.66 476.1 148.5 476.02 137.1 376.83 142.19 376.25 153.66 476.1" style="fill:#455a64"></polygon><path d="M82.06,373.57s-.15.24-.46.69l-1.41,2-5.58,7.87-.08-.16,104.12.1-.25.25v-11l.25.26-40,.12-56.59.15h-.25v-.25c0-32.55.07-60.42.1-80.17,0-9.86,0-17.69.07-23.07,0-2.67,0-4.73,0-6.14l0-1.58c0-.36,0-.54,0-.54s0,.18,0,.54l0,1.58,0,6.14c0,5.38,0,13.21.07,23.07,0,19.75.06,47.62.09,80.17l-.24-.24,56.59-.18,40-.11h.25v11.54h-.25l-104.12-.4h-.19l.11-.16,5.66-7.81,1.45-2C81.88,373.79,82.06,373.57,82.06,373.57Z" style="fill:#263238"></path></g><g id="freepik--speech-bubble--inject-94"><path d="M259.58,88.19A2.59,2.59,0,1,1,257,85.6,2.59,2.59,0,0,1,259.58,88.19Z" style="fill:#263238"></path><path d="M269.94,88.19a2.59,2.59,0,1,1-2.59-2.59A2.59,2.59,0,0,1,269.94,88.19Z" style="fill:#263238"></path><path d="M280.28,86.9a2.59,2.59,0,1,1-3.54-1A2.59,2.59,0,0,1,280.28,86.9Z" style="fill:#263238"></path><path d="M267.51,58a2,2,0,0,1,.53,0l1.53,0c.34,0,.72,0,1.14.05l1.36.19,1.58.23,1.77.44A28.71,28.71,0,0,1,284,62.63a30.27,30.27,0,0,1,13.9,22.75,31.77,31.77,0,0,1,.08,4.15c-.05.7,0,1.41-.13,2.12l-.33,2.13a30.35,30.35,0,0,1-2.88,8.44,32.59,32.59,0,0,1-5.51,7.59,32.14,32.14,0,0,1-7.94,5.71,29.08,29.08,0,0,1-9.69,3,20,20,0,0,1-2.58.22,22.66,22.66,0,0,1-2.61,0,31,31,0,0,1-5.23-.66,30.41,30.41,0,0,1-10.4-4.38l.31,0L240.39,118l-.63.25.18-.65,3.12-11.33.05.28a30.57,30.57,0,0,1-5.66-13A27.61,27.61,0,0,1,237,87a22.38,22.38,0,0,1,.3-3.19l.24-1.55c.1-.51.25-1,.37-1.5a30.34,30.34,0,0,1,11.83-17.24,29.06,29.06,0,0,1,7-3.72l1.59-.57,1.5-.38,1.38-.34c.44-.08.87-.13,1.27-.19.8-.1,1.5-.24,2.12-.27l1.56,0,.95,0a1,1,0,0,1,.32,0l-.32,0-.95.08-1.55.1c-.61,0-1.3.2-2.1.32a30.15,30.15,0,0,0-24.11,22.36c-.11.49-.26,1-.35,1.48s-.16,1-.23,1.52a20.23,20.23,0,0,0-.28,3.13,26.69,26.69,0,0,0,.43,6.51,29.74,29.74,0,0,0,5.58,12.67l.09.12,0,.16-3.09,11.34-.45-.4,10.6-4.27.16-.07.15.1a29.87,29.87,0,0,0,10.18,4.28,30.53,30.53,0,0,0,5.11.65,21.71,21.71,0,0,0,2.55,0,19.33,19.33,0,0,0,2.53-.21,28.31,28.31,0,0,0,9.46-2.9,31,31,0,0,0,7.78-5.56,32.07,32.07,0,0,0,5.42-7.42,29.8,29.8,0,0,0,2.85-8.26c.11-.7.22-1.4.32-2.09s.09-1.39.15-2.08a32.39,32.39,0,0,0-.07-4.07A30,30,0,0,0,283.79,63a28.88,28.88,0,0,0-8.44-3.8l-1.75-.47L272,58.42l-1.34-.22c-.41,0-.79-.05-1.13-.08L268,58Z" style="fill:#263238"></path></g><g id="freepik--Floor--inject-94"><path d="M699.76,475.87c0,.14-145.41.26-324.74.26S50.24,476,50.24,475.87s145.38-.26,324.78-.26S699.76,475.73,699.76,475.87Z" style="fill:#263238"></path></g><g id="freepik--character-3--inject-94"><path d="M558.46,182.55a20.63,20.63,0,0,1,21.74-17.61l1.07.07c11.45,1.41,16.64,11.92,14.92,23.33l-5,45.86h0l-27,8.56,1.45-20.54s-10.93-2.43-10.36-13.48C555.56,203.4,557,192.45,558.46,182.55Z" style="fill:#ffbe9d"></path><path d="M565.55,222.2a26.82,26.82,0,0,0,14.75-3.31s-3.91,7.73-14.87,6Z" style="fill:#eb996e"></path><path d="M561.07,190.29a1.58,1.58,0,0,0,1.42,1.69,1.5,1.5,0,0,0,1.72-1.31,1.58,1.58,0,0,0-1.42-1.69A1.51,1.51,0,0,0,561.07,190.29Z" style="fill:#263238"></path><path d="M560.49,187.63c.18.22,1.43-.59,3.13-.47s2.89,1,3.09.84-.08-.47-.6-.9a4.43,4.43,0,0,0-2.45-.93,4.15,4.15,0,0,0-2.51.64C560.6,187.17,560.4,187.54,560.49,187.63Z" style="fill:#263238"></path><path d="M576.51,191.81a1.58,1.58,0,0,0,1.42,1.69,1.51,1.51,0,0,0,1.72-1.32,1.58,1.58,0,0,0-1.42-1.69A1.52,1.52,0,0,0,576.51,191.81Z" style="fill:#263238"></path><path d="M577.16,188.77c.18.22,1.43-.59,3.13-.47s2.89,1,3.08.84-.07-.47-.59-.9a4.32,4.32,0,0,0-2.46-.93,4.19,4.19,0,0,0-2.5.63C577.27,188.31,577.07,188.67,577.16,188.77Z" style="fill:#263238"></path><path d="M570.19,201.69a12,12,0,0,0-2.73-.67c-.43-.07-.83-.19-.89-.49a2.22,2.22,0,0,1,.37-1.26l1.5-3.22c2.08-4.59,3.62-8.37,3.43-8.45s-2,3.57-4.1,8.15L566.32,199a2.57,2.57,0,0,0-.33,1.69,1.1,1.1,0,0,0,.67.68,3.39,3.39,0,0,0,.73.15A10.94,10.94,0,0,0,570.19,201.69Z" style="fill:#263238"></path><path d="M575.11,203.19c-.28,0-.4,1.81-2.06,3s-3.61.88-3.64,1.14c0,.11.41.39,1.24.46a4.57,4.57,0,0,0,3-.84,4,4,0,0,0,1.61-2.54C575.41,203.66,575.23,203.19,575.11,203.19Z" style="fill:#263238"></path><path d="M577.15,182.82c.13.47,1.84.36,3.82.73s3.55,1,3.84.62c.13-.19-.12-.65-.74-1.13a6.75,6.75,0,0,0-5.84-1C577.48,182.26,577.09,182.6,577.15,182.82Z" style="fill:#e0e0e0"></path><path d="M561.43,183.24c.27.4,1.47.08,2.88.15s2.58.42,2.88,0c.13-.19,0-.59-.53-1a4.1,4.1,0,0,0-2.3-.78,4,4,0,0,0-2.34.63C561.5,182.65,561.31,183,561.43,183.24Z" style="fill:#e0e0e0"></path><path d="M555,172.62A2.11,2.11,0,0,1,557.3,171a4.36,4.36,0,0,1-1.49-.83,1.53,1.53,0,0,1-.47-1.57c.32-.84,1.42-1,2.3-1.19a5.69,5.69,0,0,0,3-1.81c1.1-1.29,1.57-3,2.53-4.4a7.36,7.36,0,0,1,11.45-.81,7.65,7.65,0,0,1,12.23,2.35A8.92,8.92,0,0,1,598.65,173l-7,4a3.71,3.71,0,0,0-4.41-3.4c-2.1.52-3.52,2.87-5.69,2.95-1.68.07-3.06-1.29-4.67-1.79-2-.61-4.07.11-5.89,1s-3.57,2.12-5.57,2.54a11.4,11.4,0,0,1-7-1.1,7.39,7.39,0,0,1-2.54-1.71A3.24,3.24,0,0,1,555,172.62Z" style="fill:#e0e0e0"></path><path d="M590.53,173.64,559,172.24a14.42,14.42,0,0,1,5-5,24.58,24.58,0,0,1,14.6-4.19c5.14.25,15.18,7.2,18.66,11,2.79,3,2.61,5.48,2.61,5.48.2,4.11-2.39,8.6-3.57,12.55-.6,2-1.92,8.23-1.92,8.23h0c-1.74-.12-2.29-1.54-1.91-3.24l.77-6.71a10.18,10.18,0,0,1-2.32-12.07C591.39,177.66,592.53,174.92,590.53,173.64Z" style="fill:#e0e0e0"></path><path d="M593.73,189.88c1.82-5.52,3.52-11.45,2-17.07h.94l.38.3a4.42,4.42,0,0,1,4.7,7,3.81,3.81,0,0,1,3.7,3.48,7.06,7.06,0,0,1-1.16,3.65,8.63,8.63,0,0,0-1.34,3.6,2.77,2.77,0,0,0,2,2.93,3.16,3.16,0,0,1-3.64,1.6,6.33,6.33,0,0,0,2.06,2.81c-2.1,1.32-4.91.74-7.1-.44a6.08,6.08,0,0,1-3.06-3.06C592.69,193.13,593.22,191.44,593.73,189.88Z" style="fill:#e0e0e0"></path><path d="M594,196.41c.2-.07,7.74-1.75,7,5.78s-8.14,5.26-8.14,5S594,196.41,594,196.41Z" style="fill:#ffbe9d"></path><path d="M594.78,204.55s.12.1.33.23a1.33,1.33,0,0,0,1,.11c.83-.21,1.62-1.41,1.79-2.77a4.42,4.42,0,0,0-.19-1.91,1.54,1.54,0,0,0-.89-1.11.68.68,0,0,0-.81.29c-.12.2-.09.36-.13.36s-.15-.14-.06-.44a.87.87,0,0,1,.34-.45,1,1,0,0,1,.75-.12,1.86,1.86,0,0,1,1.26,1.3,4.47,4.47,0,0,1,.25,2.15c-.19,1.51-1.11,2.86-2.23,3.07a1.44,1.44,0,0,1-1.18-.32C594.77,204.73,594.75,204.56,594.78,204.55Z" style="fill:#eb996e"></path><path d="M602.08,190.45s.22-.28.17-.87a2.85,2.85,0,0,0-1.34-2,8.86,8.86,0,0,0-3.42-1,4.25,4.25,0,0,1-3.39-1.88,6.3,6.3,0,0,1-.43-4c.22-1.26.61-2.4.81-3.38a5.58,5.58,0,0,0,.07-3.25,14.16,14.16,0,0,1-.48,3.15c-.25,1-.66,2.06-.94,3.39a6.57,6.57,0,0,0,.46,4.37,3.71,3.71,0,0,0,1.74,1.59,7.55,7.55,0,0,0,2.07.54,9,9,0,0,1,3.3.79,2.72,2.72,0,0,1,1.32,1.7A5.59,5.59,0,0,1,602.08,190.45Z" style="fill:#fafafa"></path><path d="M604,187.23s.17-.21.26-.68a3.31,3.31,0,0,0-.3-2,3.51,3.51,0,0,0-.86-1.11,3.84,3.84,0,0,0-1.42-.73,4.3,4.3,0,0,1-1.42-.65,1.73,1.73,0,0,1-.51-1.4c0-.58.11-1.18.12-1.79a8.7,8.7,0,0,0-.13-1.72,8.16,8.16,0,0,0-1-2.74,2.08,2.08,0,0,0-1.63-1.13c-.5,0-.72.2-.7.22s.26-.07.67,0a1.9,1.9,0,0,1,1.3,1.11,8.52,8.52,0,0,1,.81,2.62,9.39,9.39,0,0,1,.08,1.61c0,.56-.13,1.15-.13,1.81a2.28,2.28,0,0,0,.73,1.84,4.53,4.53,0,0,0,1.62.73,3.12,3.12,0,0,1,2.08,1.52A4.28,4.28,0,0,1,604,187.23Z" style="fill:#fafafa"></path><path d="M560.59,165.61c-.05,0,.55.43,1.56,0a4.46,4.46,0,0,0,1.48-1.16,6.18,6.18,0,0,1,1.81-1.49,5.26,5.26,0,0,1,5.68.6c.91.71,1.7,1.69,2.76,2.52a4.72,4.72,0,0,0,1.85.95,4.06,4.06,0,0,0,2.16-.12c1.38-.44,2.49-1.23,3.68-1.61a9.5,9.5,0,0,1,3.57-.5,9.37,9.37,0,0,1,5.65,2.19,10.25,10.25,0,0,1,2.58,3.27c.43.89.58,1.43.63,1.42s0-.15-.06-.41a7.54,7.54,0,0,0-.36-1.11,9.9,9.9,0,0,0-2.52-3.49,9.61,9.61,0,0,0-5.89-2.41,10,10,0,0,0-3.79.49c-1.28.41-2.41,1.21-3.66,1.6a3.59,3.59,0,0,1-1.86.11,4.35,4.35,0,0,1-1.63-.83c-1-.77-1.8-1.75-2.77-2.5a5.51,5.51,0,0,0-3.26-1.22,5.93,5.93,0,0,0-3,.68,6.38,6.38,0,0,0-1.87,1.64,4.46,4.46,0,0,1-1.33,1.17A2.16,2.16,0,0,1,560.59,165.61Z" style="fill:#fafafa"></path><rect x="514.95" y="373.29" width="104.12" height="10.79" style="fill:#455a64"></rect><polygon points="553.27 261.26 619.23 262.07 619.07 374.01 545.45 374.65 553.27 261.26" style="fill:#455a64"></polygon><polygon points="628.48 475.87 623.05 475.91 611.54 375.72 616.62 375.14 628.48 475.87" style="fill:#455a64"></polygon><polygon points="597.85 475.91 592.69 475.83 581.29 375.72 586.38 375.14 597.85 475.91" style="fill:#455a64"></polygon><polygon points="506.67 476.1 511.83 476.02 523.23 376.83 518.15 376.25 506.67 476.1" style="fill:#455a64"></polygon><polygon points="539.94 476.1 545.1 476.02 556.49 376.83 551.41 376.25 539.94 476.1" style="fill:#455a64"></polygon><path d="M611.54,373.57s.18.22.5.66l1.45,2,5.66,7.81.11.16h-.2l-104.11.4h-.25V373H515l40,.11,56.59.18-.24.24c0-32.55.07-60.42.09-80.17,0-9.86.05-17.69.07-23.07,0-2.67,0-4.73,0-6.14l0-1.58c0-.36,0-.54,0-.54s0,.18,0,.54,0,.89,0,1.58c0,1.41,0,3.47,0,6.14,0,5.38,0,13.21.07,23.07,0,19.75.06,47.62.1,80.17v.25h-.25L555,373.67l-40-.12.25-.26v11l-.25-.25,104.11-.1-.08.16-5.57-7.87-1.41-2C611.69,373.81,611.54,373.57,611.54,373.57Z" style="fill:#263238"></path><path d="M456.22,437.84l.39,24.21s-24.47,8.53-24.84,13l47,.93.94-37.75Z" style="fill:#159DA2"></path><g style="opacity:0.30000000000000004"><path d="M456.22,437.84l.39,24.21s-24.47,8.53-24.84,13l47,.93.94-37.75Z"></path></g><path d="M471.17,460.3a1.92,1.92,0,0,1,1.29,2.22,1.85,1.85,0,0,1-2.19,1.29,2,2,0,0,1-1.34-2.36,1.92,1.92,0,0,1,2.42-1.09" style="fill:#e0e0e0"></path><path d="M478.74,476l.15-3.82-45.21.54s-2.11.87-1.91,2.35Z" style="fill:#263238"></path><path d="M455.86,461.8c0,.23,1.14.35,2.26,1.11s1.69,1.74,1.91,1.65-.11-1.42-1.47-2.31S455.81,461.58,455.86,461.8Z" style="fill:#263238"></path><path d="M450.89,463.74c-.06.22.93.63,1.69,1.61s1,2,1.19,2,.4-1.3-.57-2.5S450.9,463.52,450.89,463.74Z" style="fill:#263238"></path><path d="M448,469.58c.21.05.55-1.09,0-2.36s-1.63-1.79-1.73-1.6.55.88,1,1.92S447.75,469.55,448,469.58Z" style="fill:#263238"></path><path d="M456.38,456.27c.09.21,1.15-.09,2.44,0s2.3.54,2.42.35-.83-1-2.36-1.15S456.27,456.09,456.38,456.27Z" style="fill:#263238"></path><path d="M526.39,326.06s-13.91,2.09-28.23,4.75C481,334,462.69,338,460.24,339.92c-4.49,3.53-5.46,13.16-7.38,25.05s-2.7,85.17-2.7,85.17l31.72,1,6.83-77.71s46.58,0,56.16-.08c7.73-.05,28.72,1.15,36.42-3.35s14.06-25,14-25l-60.1-24.83Z" style="fill:#263238"></path><path d="M458.32,374.69l-4.6,24.43s-26.37,3.53-27.66,8l47.05,10.62,8.72-37.77Z" style="fill:#159DA2"></path><path d="M468.73,400.36a2,2,0,0,1,.83,2.49,1.88,1.88,0,0,1-2.46.85,2.08,2.08,0,0,1-.87-2.64,2,2,0,0,1,2.66-.6" style="fill:#e0e0e0"></path><path d="M472.92,418.69l.84-3.66-45.31-9.91s-2.3.44-2.39,2Z" style="fill:#e0e0e0"></path><path d="M453,398.71c0,.23,1.08.59,2.05,1.59s1.35,2.09,1.58,2.05.19-1.45-1-2.63S453,398.49,453,398.71Z" style="fill:#263238"></path><path d="M447.62,399.64c-.1.21.8.82,1.36,2s.56,2.23.79,2.27.67-1.23-.06-2.64S447.67,399.42,447.62,399.64Z" style="fill:#263238"></path><path d="M443.48,404.91c.2.1.78-1,.47-2.37s-1.26-2.14-1.4-2,.37,1,.6,2.14S443.26,404.84,443.48,404.91Z" style="fill:#263238"></path><path d="M454.68,393.26c.05.23,1.17.15,2.45.53s2.2,1,2.36.85-.62-1.21-2.13-1.64S454.61,393.05,454.68,393.26Z" style="fill:#263238"></path><path d="M479.64,299.78a14.65,14.65,0,0,0-14.13,6.42c-5.46,8-13.36,79.31-13.36,79.31l28.38,6.43,17.53-61.32,28.46-4.56,9.32-6.29s-6.79-3-16.41-7.47S479.64,299.78,479.64,299.78Z" style="fill:#263238"></path><path d="M582.9,368.84s-.36.24-1.07.06a1.52,1.52,0,0,1-1.1-.73,4.14,4.14,0,0,1-.33-1.75c-.16-2.68-.37-6.37-.62-10.75l.32.2a58.27,58.27,0,0,1-12.57,3.49,59.17,59.17,0,0,1-10.86.71,8.64,8.64,0,0,0-2.36.15,2.85,2.85,0,0,0-1.72,1.19,6.32,6.32,0,0,0-.78,3.84c.18,2.54,0,4.58,0,6,0,.7,0,1.25,0,1.62a3.55,3.55,0,0,1,0,.57,1.63,1.63,0,0,1-.11-.56c0-.37-.07-.92-.09-1.63-.06-1.41,0-3.46-.18-6a6.67,6.67,0,0,1,.79-4.11,3.37,3.37,0,0,1,2-1.4,9,9,0,0,1,2.49-.18,61.15,61.15,0,0,0,10.77-.75,60.26,60.26,0,0,0,12.48-3.39l.3-.12v.32c.18,4.38.32,8.08.43,10.76a4.57,4.57,0,0,0,.24,1.67,1.48,1.48,0,0,0,1,.69A2.25,2.25,0,0,0,582.9,368.84Z" style="fill:#455a64"></path><path d="M497.93,330.56a24.49,24.49,0,0,0-3.87-4.71,25,25,0,0,0-5.21-3.18,10.85,10.85,0,0,1,5.55,2.78,13.26,13.26,0,0,1,2.82,3.42A4.54,4.54,0,0,1,497.93,330.56Z" style="fill:#455a64"></path><path d="M490.84,315.12s.24.11.61.39a13.53,13.53,0,0,1,1.46,1.33A18.8,18.8,0,0,1,498,328.59a13.69,13.69,0,0,1,0,2,2.27,2.27,0,0,1-.12.71c-.09,0,0-1-.23-2.65a21.28,21.28,0,0,0-1.64-6.15,21.76,21.76,0,0,0-3.39-5.39C491.57,315.85,490.79,315.18,490.84,315.12Z" style="fill:#455a64"></path><path d="M457.72,341.5s0,.07,0,.21l-.07.61q-.09.84-.27,2.37c-.25,2.1-.63,5.13-1.1,9l-4,31.88-.18-.25,28.39,6.4-.3.17c1.31-4.24,2.68-8.69,4.07-13.21,5.52-17.81,10.47-34.37,13.49-48.07l0-.15.15,0L514.41,328l12-2.07,0,0,5.29-3.5,1.36-.89.47-.29a4.52,4.52,0,0,1-.44.34l-1.33.93-5.23,3.59,0,0h0l-11.95,2.18L498,330.83l.18-.16c-3,13.74-7.9,30.33-13.41,48.13L480.65,392l-.07.23-.23-.05L452,385.73l-.2,0,0-.21c1.74-13.12,3.19-24.11,4.22-31.85.52-3.84.94-6.86,1.22-9,.15-1,.26-1.8.34-2.36l.1-.61A1.81,1.81,0,0,1,457.72,341.5Z" style="fill:#455a64"></path><path d="M512.72,298.28l-23.3,5.64L500.56,307c.73.19,14.34,3.15,16.57,2.14a28.4,28.4,0,0,0,3.76-2l2-8.36-2.23-.54A16.87,16.87,0,0,0,512.72,298.28Z" style="fill:#ffbe9d"></path><path d="M615,239.48l-18.95-16.55-2.65-5.49L567.9,234.56l-1.77,6.25-1.71-8.48-3,7.58-3.83,2.92a18.6,18.6,0,0,0-3.21,3.91,66.59,66.59,0,0,0-4.67,9.18c-1.08,2.62-4.64,13.75-9.06,24.92-7,17.64-12.61,36.24-8.71,39.25s50,27.89,61.89,29.19c6.5.71,8.33-4.32,9.45-10.19C605.38,328.21,615,239.48,615,239.48Z" style="fill:#159DA2"></path><polygon points="458.07 292.85 457.18 295.82 536.52 318.24 537.62 314.53 458.07 292.85" style="fill:#455a64"></polygon><path d="M548.16,296.31a2.27,2.27,0,0,1,.11-.58c.12-.42.26-1,.44-1.61.39-1.4,1-3.42,1.73-5.91s1.7-5.44,2.83-8.69,2.58-6.74,3.85-10.49c2.59-7.49,4.75-14.34,6.35-19.28.79-2.42,1.43-4.4,1.9-5.85l.54-1.59a1.85,1.85,0,0,1,.22-.54,4,4,0,0,1-.12.57c-.12.43-.27,1-.45,1.62l-1.74,5.9c-1.51,5-3.62,11.84-6.21,19.34-1.28,3.77-2.78,7.24-3.89,10.48s-2.12,6.17-2.92,8.64-1.43,4.41-1.9,5.86c-.21.64-.39,1.17-.52,1.58A2.54,2.54,0,0,1,548.16,296.31Z" style="fill:#263238"></path><g style="opacity:0.30000000000000004"><path d="M606.18,312.72c-4.61,6.48-12.86,9.55-20.8,9.85s-15.76-1.78-23.46-3.75-15.6-3.85-23.51-3.15l-1.17-.17c10.64,4.59,21.12,9.5,32.22,12.83A54.54,54.54,0,0,0,585,331.11c5.28,0,10.7-1.34,14.88-4.59S606.81,318,606.18,312.72Z"></path></g><path d="M595.2,243.87c4.15-8.55,16-10,21.71-2.37a18.62,18.62,0,0,1,2.32,8.14c-.15,6.42-4.21,51.36-13.75,65.65-5.39,8.08-15,8.58-17.55,8.61-6,.08-31.24-5-41.19-6.55S518,311,518,311l3.26-13.67,57.39-2.38,10.68-39Z" style="fill:#159DA2"></path><path d="M588.26,306.32a14.46,14.46,0,0,1-.74-2.19,16.87,16.87,0,0,0-2.43-4.89,13.52,13.52,0,0,0-4.16-3.5,15.5,15.5,0,0,1-2-1.11,7.54,7.54,0,0,1,2.2.78,12.26,12.26,0,0,1,4.41,3.51,14.69,14.69,0,0,1,2.36,5.11A7.85,7.85,0,0,1,588.26,306.32Z" style="fill:#263238"></path><path d="M611.54,299.59a.67.67,0,0,1,0,.23l-.15.65c-.13.58-.35,1.42-.66,2.5a57.75,57.75,0,0,1-3.36,8.88,26.61,26.61,0,0,1-3.49,5.58,16.63,16.63,0,0,1-6.15,4.37c-4.89,2.21-10.93,2.77-17,2.1-3-.31-6-.84-8.82-1.39l-8.15-1.6-13.79-2.75-9.29-1.9-2.52-.54-.65-.15-.22-.07a.58.58,0,0,1,.23,0l.66.11,2.54.44L550,317.8l13.81,2.64L572,322c2.83.54,5.76,1.06,8.79,1.37,6,.66,12,.12,16.77-2a16.46,16.46,0,0,0,6-4.21,27,27,0,0,0,3.48-5.47,61.2,61.2,0,0,0,3.49-8.77c.34-1.07.6-1.9.76-2.46.08-.26.14-.47.2-.65A.61.61,0,0,1,611.54,299.59Z" style="fill:#263238"></path><path d="M589.37,255.92a4.42,4.42,0,0,1-.16.77c-.14.54-.32,1.27-.55,2.2-.51,2-1.23,4.73-2.13,8.17-1.86,7-4.44,16.64-7.38,27.64l0,.18h-.18l-8.77.47c-13.49.65-25.71,1.05-34.54,1.41l-10.47.43-2.85.11-.74,0h-.25a.61.61,0,0,1,.25,0l.74-.07,2.84-.21c2.47-.16,6-.37,10.46-.6l34.53-1.56,8.77-.46-.23.19c3-11,5.64-20.64,7.55-27.6,1-3.42,1.73-6.18,2.27-8.13l.64-2.18A4.18,4.18,0,0,1,589.37,255.92Z" style="fill:#263238"></path><path d="M613.27,240.21a25.74,25.74,0,0,0-3.72-1.29,14.57,14.57,0,0,0-16.11,7,26.51,26.51,0,0,0-1.6,3.6,3.33,3.33,0,0,1,.19-1.06,13.18,13.18,0,0,1,1.08-2.72,14.36,14.36,0,0,1,16.53-7.17,12.12,12.12,0,0,1,2.73,1.06A3,3,0,0,1,613.27,240.21Z" style="fill:#263238"></path><g style="opacity:0.30000000000000004"><path d="M567.9,234.56a22,22,0,0,0,1.55,7.71c.15.4.76,3.12,1.18,3.2a1.63,1.63,0,0,0,1.22-.5,170,170,0,0,0,18.06-16.82l-18.25,13.36-3.76-6.95Z"></path></g><path d="M561.43,239.91a1.41,1.41,0,0,1,.13.4c.09.32.19.7.31,1.18h-.16c.45-1.66,1.28-4.58,2.39-8.38l.19-.69.18.7c.55,2.25,1.19,4.83,1.89,7.64h-.46c.55-2,1.14-4.06,1.76-6.25l.17-.61.3.55,3.25,6,.51.94-.38-.08,17.35-12.87,5.27-3.83,1.44-1a3.11,3.11,0,0,1,.52-.33s-.14.15-.46.41-.81.65-1.38,1.09l-5.17,4-17.26,13-.24.18-.14-.27-.51-.94-3.25-6,.47-.06c-.63,2.2-1.24,4.3-1.8,6.25l-.25.87-.2-.88c-.67-2.82-1.27-5.4-1.81-7.66h.37c-1.16,3.78-2.06,6.68-2.59,8.32l-.1.31-.06-.31c-.09-.49-.17-.88-.23-1.2A2.47,2.47,0,0,1,561.43,239.91Z" style="fill:#263238"></path></g><g id="freepik--character-1--inject-94"><path d="M192,432.92,185.42,456s21.26,14.41,20.46,18.8l-45.21-11.1,8.73-36.39Z" style="fill:#159DA2"></path><path d="M171.92,450.62a1.9,1.9,0,0,0-1.8,1.79,1.83,1.83,0,0,0,1.76,1.79,2,2,0,0,0,1.89-1.91,1.89,1.89,0,0,0-2-1.66" style="fill:#e0e0e0"></path><g style="opacity:0.6000000000000001"><path d="M160.67,463.71l1-3.64,43,12s1.8,1.37,1.22,2.74Z" style="fill:#fff"></path></g><path d="M186.21,456c-.07.22-1.19.05-2.45.49s-2.07,1.23-2.25,1.09.46-1.33,2-1.84S186.3,455.77,186.21,456Z" style="fill:#263238"></path><path d="M190.47,459.08c0,.23-1.05.37-2,1.12s-1.44,1.68-1.66,1.62-.05-1.35,1.19-2.26S190.51,458.87,190.47,459.08Z" style="fill:#263238"></path><path d="M191.77,465.42c-.21,0-.25-1.18.61-2.25s2-1.3,2.07-1.09-.75.69-1.45,1.58S192,465.45,191.77,465.42Z" style="fill:#263238"></path><path d="M187.12,450.53c-.15.18-1.08-.37-2.35-.6s-2.34-.06-2.41-.28,1.06-.78,2.55-.49S187.27,450.38,187.12,450.53Z" style="fill:#263238"></path><path d="M176.15,438.91l-.94,24s24.06,9,24.31,13.46L153,476.19l-.06-37.42Z" style="fill:#159DA2"></path><path d="M160.82,460.82A1.9,1.9,0,0,0,159.5,463a1.82,1.82,0,0,0,2.13,1.32A2,2,0,0,0,163,462a1.89,1.89,0,0,0-2.37-1.13" style="fill:#e0e0e0"></path><g style="opacity:0.6000000000000001"><path d="M153,476.19l.15-3.77L197.69,474s2.07.91,1.83,2.37Z" style="fill:#fff"></path></g><path d="M176,462.65c0,.23-1.14.33-2.26,1.06s-1.72,1.68-1.93,1.59.13-1.41,1.51-2.26S176,462.44,176,462.65Z" style="fill:#263238"></path><path d="M180.84,464.69c0,.22-.93.6-1.71,1.56s-1,2-1.23,2-.36-1.3.62-2.48S180.84,464.47,180.84,464.69Z" style="fill:#263238"></path><path d="M183.59,470.54c-.2,0-.51-1.09.07-2.33s1.66-1.74,1.75-1.55-.56.86-1,1.89S183.82,470.52,183.59,470.54Z" style="fill:#263238"></path><path d="M175.57,457.16c-.09.21-1.14-.11-2.42,0s-2.29.48-2.41.29.85-1,2.37-1.08S175.69,457,175.57,457.16Z" style="fill:#263238"></path><path d="M175.21,456a9.9,9.9,0,0,0-.13,1.88c0,1.19-.07,2.91-.1,5V463l.15.06c2.39.95,5.32,2.11,8.43,3.46,4.05,1.74,7.64,3.49,10.19,4.84l3,1.64a6.2,6.2,0,0,0,1.12.57,5,5,0,0,0-1-.75c-.68-.45-1.68-1.07-2.93-1.8a104,104,0,0,0-10.16-5c-3.13-1.35-6.07-2.48-8.49-3.37l.14.21c0-2.08-.05-3.8-.09-5A9.9,9.9,0,0,0,175.21,456Z" style="fill:#263238"></path><path d="M146.6,262.6l.07,15.51,5.42,73.83s-3,35.84-4.87,56.07c-1.61,17.57,1.28,48.14,1.28,48.14l29.64-.13,10.15-102,6.3-63.64,11.32-29Z" style="fill:#263238"></path><polygon points="223.81 260.94 219.42 365.17 189.78 442.44 188.42 447.1 170.7 442.89 183.06 260.29 223.81 260.94" style="fill:#263238"></polygon><path d="M194.52,291.09a2.85,2.85,0,0,1,0,.43c0,.31,0,.73,0,1.26,0,1.13-.07,2.75-.13,4.83-.1,4.19-.37,10.26-.77,17.75-.82,15-2.4,35.66-4.9,58.42s-5.2,43.33-7.2,58.2c-1,7.41-1.84,13.41-2.41,17.6-.3,2.05-.53,3.66-.69,4.78-.08.53-.14.94-.19,1.24a2,2,0,0,1-.08.42,2.22,2.22,0,0,1,0-.42c0-.31.07-.73.13-1.25.14-1.13.33-2.74.58-4.8.53-4.19,1.3-10.21,2.24-17.63,1.9-14.88,4.58-35.43,7-58.2s4.14-43.41,5.06-58.38c.45-7.49.78-13.55.95-17.74.1-2.07.17-3.69.23-4.83,0-.53,0-.94.07-1.25A2.14,2.14,0,0,1,194.52,291.09Z" style="fill:#455a64"></path><path d="M192.77,285s0,.1.1.22a.63.63,0,0,0,.68,0,1.3,1.3,0,0,0,.49-.94c.06-.41.12-.84.18-1.3.27-1.91.6-4.56.93-7.49s.59-5.59.76-7.51a16.36,16.36,0,0,0,.15-3.13,19.09,19.09,0,0,0-.54,3.08c-.26,1.92-.59,4.57-.92,7.5s-.6,5.58-.76,7.51c-.12.94,0,1.82-.4,2.1a.54.54,0,0,1-.51.06C192.82,285.11,192.79,285,192.77,285Z" style="fill:#455a64"></path><path d="M189.61,266.28s-.15-.08-.45,0a1.91,1.91,0,0,0-1.39,2.49,2.13,2.13,0,0,0,1.86,1.35,2,2,0,0,0,1.9-1.27,1.86,1.86,0,0,0-.16-1.86,1.56,1.56,0,0,0-1.08-.65c-.3,0-.45.07-.44.1a1.7,1.7,0,0,1,1.19.76,1.49,1.49,0,0,1,0,1.44,1.55,1.55,0,0,1-1.42.93,1.67,1.67,0,0,1-1.41-1,1.47,1.47,0,0,1,.17-1.42C188.94,266.36,189.64,266.37,189.61,266.28Z" style="fill:#455a64"></path><path d="M216.2,264.48a4.31,4.31,0,0,0-.33,2,8.75,8.75,0,0,0,1.38,4.71,8.85,8.85,0,0,0,3.69,3.24,4.09,4.09,0,0,0,2,.53c0-.08-.73-.29-1.79-.88a9.62,9.62,0,0,1-3.41-3.18,9.81,9.81,0,0,1-1.46-4.44C216.16,265.26,216.29,264.5,216.2,264.48Z" style="fill:#455a64"></path><path d="M207.8,268.08c.14.05.57-.9.77-2.15a3.88,3.88,0,0,0-.06-2.28c-.16,0-.29,1-.48,2.19A6.26,6.26,0,0,0,207.8,268.08Z" style="fill:#455a64"></path><path d="M204.53,268.09a5.49,5.49,0,0,0,.72-2.28,5.35,5.35,0,0,0,.18-2.39,10.4,10.4,0,0,0-.9,4.67Z" style="fill:#455a64"></path><path d="M171.67,268.09c.15,0,.43-.66.62-1.54s.23-1.61.08-1.64-.42.65-.62,1.53S171.52,268.05,171.67,268.09Z" style="fill:#455a64"></path><path d="M168.45,269.21a9.87,9.87,0,0,0,.87-6,61.16,61.16,0,0,0-.87,6Z" style="fill:#455a64"></path><path d="M146.18,280.2a2.8,2.8,0,0,0,.89.35,8.29,8.29,0,0,0,2.6.26,11.76,11.76,0,0,0,7.67-3.66,17.85,17.85,0,0,0,4.07-7.52,25,25,0,0,0,.56-2.54,2.75,2.75,0,0,0,.07-.95c-.09,0-.33,1.31-1,3.37a19.09,19.09,0,0,1-4.1,7.26,11.9,11.9,0,0,1-7.3,3.65A14.86,14.86,0,0,1,146.18,280.2Z" style="fill:#455a64"></path><path d="M177.2,108.4a86.56,86.56,0,0,1-5.78-13.53,29.81,29.81,0,0,1-1-14.54c.15-.73,1.64-5.68,2.39-5.72.53,0-.17,4.49.16,4.91,3.18,4,4.64,9.07,5,14.14a66.79,66.79,0,0,1-.77,14.74" style="fill:#263238"></path><path d="M208.46,131.23c-.48-3.43-.85-6.15-.82-6.15s11.59-3,10.61-14.72c-.47-5.69-2.39-17.33-4.25-27.83a22,22,0,0,0-23.77-18.07l-1.13.11C176.93,66.45,171.73,77.83,174,90l6.4,42.6,32.5,28.75Z" style="fill:#7f544e"></path><path d="M207.64,125.08A28.53,28.53,0,0,1,191.9,122s4.54,8.2,16.18,6Z" style="fill:#633a34"></path><path d="M212,92.48a1.68,1.68,0,0,1-1.46,1.85A1.6,1.6,0,0,1,208.65,93a1.68,1.68,0,0,1,1.45-1.85A1.62,1.62,0,0,1,212,92.48Z" style="fill:#263238"></path><path d="M212,87.65c-.19.24-1.55-.58-3.36-.41s-3,1.21-3.26,1,.07-.51.61-1a4.61,4.61,0,0,1,2.58-1.08,4.48,4.48,0,0,1,2.7.6C211.82,87.16,212,87.54,212,87.65Z" style="fill:#263238"></path><path d="M195.19,94.47a1.7,1.7,0,0,1-1.46,1.85A1.63,1.63,0,0,1,191.85,95a1.69,1.69,0,0,1,1.46-1.85A1.61,1.61,0,0,1,195.19,94.47Z" style="fill:#263238"></path><path d="M194.32,90.07c-.19.23-1.56-.59-3.36-.41s-3.05,1.21-3.26,1,.06-.51.6-1a4.57,4.57,0,0,1,2.59-1.08,4.43,4.43,0,0,1,2.7.6C194.18,89.58,194.41,90,194.32,90.07Z" style="fill:#263238"></path><path d="M202.12,103.33a12.11,12.11,0,0,1,2.89-.8c.45-.1.88-.23.93-.55a2.38,2.38,0,0,0-.44-1.34l-1.7-3.38c-2.37-4.83-4.14-8.81-3.94-8.9s2.28,3.73,4.65,8.56l1.64,3.41a2.65,2.65,0,0,1,.41,1.79,1.14,1.14,0,0,1-.69.74,3.43,3.43,0,0,1-.77.19A11.32,11.32,0,0,1,202.12,103.33Z" style="fill:#263238"></path><path d="M193.52,82.74c-.13.51-2,.45-4.06.91s-3.75,1.19-4.08.78c-.14-.2.11-.69.76-1.23a7.21,7.21,0,0,1,6.19-1.29C193.14,82.15,193.57,82.5,193.52,82.74Z" style="fill:#263238"></path><path d="M210.63,81.71c-.28.44-1.57.13-3.06.26s-2.74.54-3.08.13c-.14-.19,0-.62.53-1.06a4.47,4.47,0,0,1,4.95-.32C210.54,81.09,210.75,81.5,210.63,81.71Z" style="fill:#263238"></path><path d="M175.74,98.56c-.21-.07-8.31-1.62-7.29,6.4s8.86,5.33,8.85,5.1S175.74,98.56,175.74,98.56Z" style="fill:#7f544e"></path><path d="M174.46,107.34s-.13.11-.35.25a1.39,1.39,0,0,1-1,.16c-.89-.21-1.77-1.46-2-2.9a4.78,4.78,0,0,1,.14-2,1.64,1.64,0,0,1,.91-1.21.73.73,0,0,1,.88.28c.13.21.1.38.15.39s.15-.16,0-.48a1,1,0,0,0-.38-.46,1,1,0,0,0-.8-.11,2,2,0,0,0-1.3,1.43,4.72,4.72,0,0,0-.2,2.3c.26,1.6,1.28,3,2.48,3.2a1.53,1.53,0,0,0,1.25-.38C174.47,107.53,174.49,107.35,174.46,107.34Z" style="fill:#633a34"></path><path d="M207,70c1.19-.89-3.27-4.56-6.65-5.57-5.11-1.52-12.64-1.86-16.91,0-5.13,2.25-9.21,5.51-11.23,10.74a31.8,31.8,0,0,0-1.34,16.56,9.67,9.67,0,0,0,1.8,4.74c1.36,1.61,3.66,2.44,3.9,4.89a3.35,3.35,0,0,0,1.16,2.33c1.68,1.36,3.27-.35,3.9-1.93,1.33-3.38,1-7.15.68-10.76a23.85,23.85,0,0,0-1.55-7.55c-.57-1.28-1.38-2.45-1.88-3.76a4.88,4.88,0,0,1,0-4.08,5.74,5.74,0,0,1,.56-.74,8.42,8.42,0,0,1,8.07-2.71c4.73,1,12.75,2.31,14.56.5,2.59-2.59,3.08-4.12,3.08-4.12Z" style="fill:#263238"></path><path d="M206,109.36a3.38,3.38,0,0,0-.66-2h0a2.88,2.88,0,0,0-3.38.72,2.57,2.57,0,0,0,.2,3.38,2.34,2.34,0,0,0,3.31-.22A2.87,2.87,0,0,0,206,109.36Z" style="fill:#633a34"></path><path d="M205.28,111.47c.05,0-.42.57-1.48.65a2.57,2.57,0,0,1-1.77-.51,2.5,2.5,0,0,1-.83-2.09,2.62,2.62,0,0,1,1.06-2,3,3,0,0,1,1.71-.62,2.08,2.08,0,0,1,1.54.53,10.2,10.2,0,0,0-1.52-.16,2.54,2.54,0,0,0-2.27,2.27,2.07,2.07,0,0,0,.62,1.69,2.28,2.28,0,0,0,1.45.51A5.3,5.3,0,0,0,205.28,111.47Z" style="fill:#263238"></path><path d="M233,190.16s3.61,54.93,1.59,62.12-12.36,22.38-12.36,22.38a10.65,10.65,0,0,1-5.34-4.92c-1.72-3.54-1.06-3.25-1.06-3.25s8.35-5.92,6.47-14.76-1.6-60.81-1.6-60.81Z" style="fill:#7f544e"></path><path d="M225.42,147.48s6.4,5.38,7.29,16.19c.8,9.74,1.92,28.43,1.92,28.43l-11.58-.25Z" style="fill:#159DA2"></path><path d="M227.26,150.11c-1-3.85-18.28-15.26-18.28-15.26s1.2,12.37-5.06,13.33-24.31-20.58-24.31-20.58l-22.88,6.6a34.75,34.75,0,0,0-7.41,9.41c-2.63,5.3-4.38,75.29-4.38,75.29l2.94,30.79a13.7,13.7,0,0,1-1.93,6c-1.68,2.41-2.16,10.8,6.08,10.44,7.8-.33,39.43,5,55.06,4.06s17.93-2.05,18-11c.1-8.69-2.91-14.33-3.88-30.21S228.22,154,227.26,150.11Z" style="fill:#159DA2"></path><path d="M224.29,160.13a12.31,12.31,0,0,1,0,1.78c0,1.14,0,2.79-.1,4.83-.11,4.08-.35,9.72-.66,15.94s-.6,11.78-.81,15.93c-.11,2-.19,3.61-.26,4.83a11.15,11.15,0,0,1-.16,1.77,10.61,10.61,0,0,1,0-1.77c0-1.15,0-2.8.09-4.84.12-4.08.35-9.72.66-15.94s.6-11.78.82-15.93c.1-2,.19-3.61.26-4.83A11.15,11.15,0,0,1,224.29,160.13Z" style="fill:#263238"></path><path d="M222.93,145.94a9.39,9.39,0,0,1,1.56,4.35,9.56,9.56,0,0,1-.19,4.62c-.16,0,.06-2.07-.32-4.54S222.79,146,222.93,145.94Z" style="fill:#263238"></path><path d="M203.43,257.43a10.35,10.35,0,0,1-1.72.35c-1.12.19-2.74.4-4.76.59a86.15,86.15,0,0,1-31.35-2.89c-1.94-.56-3.5-1.06-4.56-1.46a12.74,12.74,0,0,1-1.63-.65,10.33,10.33,0,0,1,1.69.46c1.08.33,2.65.78,4.6,1.29a97.53,97.53,0,0,0,15.49,2.73,98.7,98.7,0,0,0,15.73.16c2-.15,3.64-.3,4.76-.44A13.12,13.12,0,0,1,203.43,257.43Z" style="fill:#263238"></path><path d="M210.57,246.51a4.27,4.27,0,0,1-.85.62c-.57.38-1.41.88-2.47,1.47a58.79,58.79,0,0,1-17.76,6.33c-1.2.21-2.17.35-2.84.41a4,4,0,0,1-1.05.06c0-.08,1.46-.32,3.81-.83a76.65,76.65,0,0,0,9-2.58,72.36,72.36,0,0,0,8.63-3.72C209.23,247.19,210.52,246.44,210.57,246.51Z" style="fill:#263238"></path><path d="M193,223a4.45,4.45,0,0,1,.47-.36l1.38-1,5.22-3.79c4.46-3.29,10.74-8.11,17.87-14.3l.09.39L190.62,197l-2.47-.62-.52-.13.42-.33a105.93,105.93,0,0,1,27.2-15.11v.4l-17.38-7.74L193,171.33l-1.26-.59a2,2,0,0,1-.42-.22,4.5,4.5,0,0,1,.45.16l1.28.53,4.88,2.08,17.46,7.57.48.21-.49.18a107.24,107.24,0,0,0-27,15.12l-.09-.46,2.47.63,27.37,7,.43.11-.33.28c-7.18,6.17-13.5,11-18,14.18-2.26,1.62-4.06,2.85-5.3,3.68l-1.42.94A3.24,3.24,0,0,1,193,223Z" style="fill:#fff"></path><g style="opacity:0.30000000000000004"><path d="M220.23,199.94a7.5,7.5,0,0,0-4.61-.95c-12.6.32-24.49,5.64-35.75,11.3s-22,11.89-34.36,14.19h0c0,3,2.4,4.53,5.26,5.33,5.46,1.51,11.36.68,16.68-1.28s10.15-5,15-8L206,205.69c2.5-1.57,5.38-3.21,8.24-2.48,1.18.3,2.22,1,3.38,1.36a3.32,3.32,0,0,0,3.42-.49C222.13,202.93,221.54,200.86,220.23,199.94Z"></path></g><path d="M141.33,181.82s-.53,31.31,0,36.84,5.11,7.7,12.08,7,44.62-18.79,52.21-23.4l-3.27-12.61s-27.49,6.77-34.31,9c0,0,3.41-5,2.69-16.81C169.85,167.44,141.33,181.82,141.33,181.82Z" style="fill:#7f544e"></path><path d="M212.21,183.74A18.15,18.15,0,0,0,206.1,187c-2.28,2.13-7.71,4.69-7.71,4.69l4.81,11.5s5.31-2.41,8.86-2.62,13.21,2.62,15.91,2.62,19.59-8.78,19.59-8.78a7.21,7.21,0,0,0-3-1.31,10.57,10.57,0,0,0-4,.43H227.34l-8.12-3.24a1,1,0,0,1-.22-1.79,4.43,4.43,0,0,1,2.49-.77c2.43,0,6.7-.53,6.91-2.38s-1.25-2.17-4.94-2.17S215.05,182.61,212.21,183.74Z" style="fill:#7f544e"></path><path d="M168,198.63c0,.08-1,0-2.56.11a13.36,13.36,0,0,0-5.76,1.82,13.54,13.54,0,0,0-4.2,4.36c-.85,1.33-1.25,2.23-1.32,2.2a7.33,7.33,0,0,1,1-2.39,11.69,11.69,0,0,1,10.26-6.36A6.8,6.8,0,0,1,168,198.63Z" style="fill:#633a34"></path><path d="M240.72,197.2c0,.08-1.2.27-3.13.7a34.77,34.77,0,0,1-7.71,1.09,23,23,0,0,1-7.65-1.49,14.79,14.79,0,0,1-2.13-1,2.67,2.67,0,0,1-.71-.51c.05-.08,1.11.56,3,1.2a26.22,26.22,0,0,0,7.53,1.31,43.36,43.36,0,0,0,7.63-.93A13.49,13.49,0,0,1,240.72,197.2Z" style="fill:#633a34"></path><path d="M240.72,197.2a2.57,2.57,0,0,0,1.36-.73,1.61,1.61,0,0,0,.38-1.6,1.63,1.63,0,0,0-1.78-1h0l-8,0-5.28-.06h-.09c-2.38-1-4.4-1.82-5.82-2.43a15.18,15.18,0,0,1-2.21-1,13,13,0,0,1,2.32.77c1.45.53,3.5,1.31,5.89,2.25l-.09,0,5.28,0,8,.11h0a2,2,0,0,1,2.14,1.32,1.9,1.9,0,0,1-.53,1.87A1.68,1.68,0,0,1,240.72,197.2Z" style="fill:#633a34"></path><path d="M177.69,128.22s-17.47,4.36-21,6S142.17,144.32,141.1,158s-1.76,23.8-1.76,23.8l34,.11Z" style="fill:#159DA2"></path><path d="M173.36,181.93c0,.15-7.74.26-17.29.26s-17.29-.11-17.29-.26,7.74-.26,17.29-.26S173.36,181.79,173.36,181.93Z" style="fill:#263238"></path><path d="M173.93,158c.14,0,.12,5.28-.06,11.78s-.43,11.76-.58,11.76-.11-5.28.06-11.78S173.78,158,173.93,158Z" style="fill:#263238"></path><path d="M247.56,194.44a6.6,6.6,0,0,1-1.23.73c-.8.43-2,1.05-3.43,1.79-2.93,1.48-7,3.52-11.53,5.55-.57.25-1.15.5-1.72.71a4.65,4.65,0,0,1-.92.27,6,6,0,0,1-.95,0c-1.19-.1-2.31-.29-3.38-.47-2.13-.38-4-.78-5.64-1.13s-2.89-.65-3.78-.88a6.88,6.88,0,0,1-1.37-.4,6.83,6.83,0,0,1,1.41.21l3.81.71c1.61.3,3.52.66,5.65,1,1.06.17,2.19.35,3.34.44a5.81,5.81,0,0,0,.83,0,4,4,0,0,0,.82-.24c.56-.21,1.12-.46,1.69-.7,4.55-2,8.61-4,11.57-5.41l3.51-1.64A8.34,8.34,0,0,1,247.56,194.44Z" style="fill:#633a34"></path><path d="M173.09,146.13c-.09,0-.37-1.19-1.28-2.95a15.61,15.61,0,0,0-12.19-8.4c-2-.23-3.21-.06-3.22-.15a2.66,2.66,0,0,1,.86-.18,12.69,12.69,0,0,1,2.39,0,14.94,14.94,0,0,1,12.49,8.6,12.7,12.7,0,0,1,.81,2.25A2.46,2.46,0,0,1,173.09,146.13Z" style="fill:#263238"></path></g></svg>